<svg width="116" height="982" viewBox="0 0 116 982" fill="none" xmlns="http://www.w3.org/2000/svg">
<g filter="url(#filter0_d_5_51)">
<path d="M26.24 1034.12C9.91999 1034.12 -4.72001 1030.36 -17.68 1022.84C-30.64 1015.16 -40.72 1004.84 -47.92 991.88C-55.28 978.76 -58.96 964.44 -58.96 948.92C-58.96 931.16 -54.56 915.4 -45.76 901.64C-37.12 887.72 -24.8 877.64 -8.80002 871.4L-8.80001 904.28C-17.6 908.6 -24.16 914.6 -28.48 922.28C-32.8 929.96 -34.96 938.84 -34.96 948.92C-34.96 959.96 -32.48 969.8 -27.52 978.44C-22.56 987.08 -15.44 993.88 -6.16001 998.84C3.11999 1003.64 13.92 1006.04 26.24 1006.04C38.56 1006.04 49.36 1003.64 58.64 998.84C67.92 993.88 75.12 987.08 80.24 978.44C85.2 969.8 87.68 959.96 87.68 948.92C87.68 938.84 85.52 929.96 81.2 922.28C76.88 914.6 70.32 908.6 61.52 904.28L61.52 871.4C77.52 877.64 89.84 887.72 98.48 901.64C107.12 915.4 111.44 931.16 111.44 948.92C111.44 964.6 107.84 978.92 100.64 991.88C93.28 1004.84 83.12 1015.16 70.16 1022.84C57.2 1030.36 42.56 1034.12 26.24 1034.12ZM75.92 738.815L75.92 808.655L110 820.655L110 849.215L-57.04 789.455L-57.04 757.775L110 698.015L110 726.815L75.92 738.815ZM53.6 746.495L-23.92 773.615L53.6 800.975L53.6 746.495ZM-7.12003 555.391C1.35997 555.391 9.35997 557.391 16.88 561.391C24.4 565.391 30.56 571.791 35.36 580.591C40 589.391 42.32 600.671 42.32 614.431L42.32 644.671L110 644.671L110 672.031L-56.8 672.031L-56.8 614.431C-56.8 601.631 -54.56 590.831 -50.08 582.031C-45.76 573.071 -39.84 566.431 -32.32 562.111C-24.8 557.631 -16.4 555.391 -7.12003 555.391ZM20 614.431C20 604.031 17.68 596.271 13.04 591.151C8.23998 586.031 1.51997 583.471 -7.12003 583.471C-25.36 583.471 -34.48 593.791 -34.48 614.431L-34.48 644.671L20 644.671L20 614.431ZM-56.8 421.537L-34.48 421.537L-34.48 465.937L110 465.937L110 493.297L-34.48 493.297L-34.48 537.937L-56.8 537.937L-56.8 421.537ZM-56.8 366.708L49.52 366.708C62.16 366.708 71.68 363.428 78.08 356.868C84.48 350.148 87.68 340.868 87.68 329.028C87.68 317.028 84.48 307.748 78.08 301.188C71.68 294.468 62.16 291.108 49.52 291.108L-56.8 291.108L-56.8 263.748L49.04 263.748C62.64 263.748 74.16 266.708 83.6 272.628C93.04 278.548 100.08 286.468 104.72 296.388C109.36 306.308 111.68 317.268 111.68 329.268C111.68 341.268 109.36 352.228 104.72 362.148C100.08 371.908 93.04 379.668 83.6 385.428C74.16 391.188 62.64 394.068 49.04 394.068L-56.8 394.068L-56.8 366.708ZM110 141.485L43.28 179.885L43.28 200.765L110 200.765L110 228.125L-56.8 228.125L-56.8001 170.525C-56.8001 157.725 -54.5601 146.925 -50.0801 138.125C-45.6001 129.165 -39.6001 122.525 -32.08 118.205C-24.56 113.725 -16.16 111.485 -6.88005 111.485C3.99995 111.485 13.92 114.685 22.88 121.085C31.68 127.325 37.68 137.005 40.88 150.125L110 108.845L110 141.485ZM21.44 200.765L21.44 170.525C21.44 160.285 18.88 152.605 13.76 147.485C8.63995 142.205 1.75995 139.565 -6.88004 139.565C-15.52 139.565 -22.24 142.125 -27.04 147.245C-32.0001 152.365 -34.4801 160.125 -34.4801 170.525L-34.4801 200.765L21.44 200.765ZM-34.7201 49.1244L14.24 49.1244L14.2399 -8.47564L36.5599 -8.47564L36.56 49.1244L87.68 49.1244L87.68 -15.6756L110 -15.6756L110 76.4844L-57.0401 76.4844L-57.0401 -15.6756L-34.7201 -15.6756L-34.7201 49.1244Z" fill="#8892AF" fill-opacity="0.16" shape-rendering="crispEdges"/>
</g>
<defs>
<filter id="filter0_d_5_51" x="-62.96" y="-15.6757" width="178.64" height="1057.8" filterUnits="userSpaceOnUse" color-interpolation-filters="sRGB">
<feFlood flood-opacity="0" result="BackgroundImageFix"/>
<feColorMatrix in="SourceAlpha" type="matrix" values="0 0 0 0 0 0 0 0 0 0 0 0 0 0 0 0 0 0 127 0" result="hardAlpha"/>
<feOffset dy="4"/>
<feGaussianBlur stdDeviation="2"/>
<feComposite in2="hardAlpha" operator="out"/>
<feColorMatrix type="matrix" values="0 0 0 0 0 0 0 0 0 0 0 0 0 0 0 0 0 0 0.25 0"/>
<feBlend mode="normal" in2="BackgroundImageFix" result="effect1_dropShadow_5_51"/>
<feBlend mode="normal" in="SourceGraphic" in2="effect1_dropShadow_5_51" result="shape"/>
</filter>
</defs>
</svg>
